<svg xmlns="http://www.w3.org/2000/svg" xmlns:xlink="http://www.w3.org/1999/xlink" width="40" height="40" viewBox="0 0 40 40">
  <defs>
    <clipPath id="clip-path">
      <rect id="사각형_687" data-name="사각형 687" width="40" height="40" rx="5" fill="#3cab37"/>
    </clipPath>
  </defs>
  <g id="ico_blog" transform="translate(-2.605)">
    <g id="마스크_그룹_12" data-name="마스크 그룹 12" transform="translate(2.605)" clip-path="url(#clip-path)">
      <rect id="사각형_560" data-name="사각형 560" width="40" height="40" rx="5" fill="#3cab37"/>
      <g id="그룹_1934" data-name="그룹 1934" transform="translate(8.88 9.676)">
        <path id="패스_2523" data-name="패스 2523" d="M108.559,244h-16a3.74,3.74,0,0,0-3.693,3.787v8.982a3.738,3.738,0,0,0,3.693,3.785h5.513l1.881,3.126a.571.571,0,0,0,.059.091.623.623,0,0,0,1.092,0,.424.424,0,0,0,.064-.1l1.879-3.126h5.508a3.741,3.741,0,0,0,3.7-3.785v-8.979a3.744,3.744,0,0,0-3.7-3.785" transform="translate(-88.871 -244)" fill="#fff"/>
        <path id="패스_2524" data-name="패스 2524" d="M98.5,258.742a1.887,1.887,0,0,0-1.219.578V257H95.855v6.09H97.3v-.476a1.365,1.365,0,0,0,1.2.631,2.1,2.1,0,0,0,1.472-.71,2.185,2.185,0,0,0,.541-1.568s-.075-2.225-2.013-2.225m-.316,3.214a.938.938,0,1,1,.92-.938.947.947,0,0,1-.269.664.908.908,0,0,1-.651.274" transform="translate(-93.311 -252.163)" fill="#e8722d"/>
        <path id="패스_2525" data-name="패스 2525" d="M109.923,256.625v1.412s.651-.03.651,1.209v3.6h1.381v-3.938s.059-2.3-2.033-2.3" transform="translate(-102.252 -251.928)" fill="#e8722d"/>
        <path id="패스_2526" data-name="패스 2526" d="M120.631,261.739a2.287,2.287,0,0,0-2.368,2.255,2.208,2.208,0,0,0,.689,1.662,2.111,2.111,0,0,0,1.679.565s2.42,0,2.42-2.227a2.241,2.241,0,0,0-.708-1.69,2.144,2.144,0,0,0-1.712-.565m0,3.192a.938.938,0,1,1,.92-.938.947.947,0,0,1-.269.664.908.908,0,0,1-.651.274" transform="translate(-107.553 -255.139)" fill="#e8722d"/>
        <path id="패스_2527" data-name="패스 2527" d="M136.612,261.878v.415a1.551,1.551,0,0,0-1.2-.557,1.951,1.951,0,0,0-1.514.646,2.041,2.041,0,0,0-.511,1.592s-.022,2.171,1.969,2.171a1.632,1.632,0,0,0,1.259-.557v.341s.1,1.07-.912,1.07h-.346v1.3h.558a2.057,2.057,0,0,0,1.537-.672,2.149,2.149,0,0,0,.555-1.611v-4.13Zm-.855,3.05a.939.939,0,1,1,.919-.938.929.929,0,0,1-.919.938" transform="translate(-117.164 -255.137)" fill="#e8722d"/>
      </g>
    </g>
  </g>
</svg>
