<svg xmlns="http://www.w3.org/2000/svg" width="150" height="150" viewBox="0 0 150 150">
  <g id="icon_cr_payco" transform="translate(-322 -750)">
    <circle id="타원_26" data-name="타원 26" cx="75" cy="75" r="75" transform="translate(322 750)" fill="#cb2129"/>
    <path id="패스_76" data-name="패스 76" d="M17.486,30.763v23.1H1.074v-68.08H28.241a31.642,31.642,0,0,1,13.817,2.876,21.672,21.672,0,0,1,9.3,8.183,22.347,22.347,0,0,1,3.3,12.04q0,9.96-7.131,15.921T27.96,30.763Zm0-12.672H28.241q4.769,0,7.271-2.385a8.86,8.86,0,0,0,2.5-6.733,10.952,10.952,0,0,0-2.572-7.622,9.106,9.106,0,0,0-7.014-2.9H17.486Z" transform="translate(368.926 805.219)" fill="#fff"/>
  </g>
</svg>
