<svg xmlns="http://www.w3.org/2000/svg" width="10.186" height="8.563" viewBox="0 0 10.186 8.563">
  <g id="ico_double_left_arr" transform="translate(-791.314 -946)">
    <path id="패스_7946" data-name="패스 7946" d="M262.672,307.364a.548.548,0,0,1,.178-.4l4.091-3.734a.547.547,0,0,1,.738.809l-3.648,3.33,3.648,3.33a.547.547,0,0,1-.738.809l-4.091-3.734A.548.548,0,0,1,262.672,307.364Z" transform="translate(533.643 642.918)"/>
    <path id="패스_7947" data-name="패스 7947" d="M262.672,307.364a.548.548,0,0,1,.178-.4l4.091-3.734a.547.547,0,0,1,.738.809l-3.648,3.33,3.648,3.33a.547.547,0,0,1-.738.809l-4.091-3.734A.548.548,0,0,1,262.672,307.364Z" transform="translate(528.643 642.918)"/>
  </g>
</svg>
