<svg id="ico_tel" xmlns="http://www.w3.org/2000/svg" xmlns:xlink="http://www.w3.org/1999/xlink" width="34" height="34" viewBox="0 0 34 34">
  <defs>
    <clipPath id="clip-path">
      <rect id="사각형_122" data-name="사각형 122" width="34" height="34" fill="none"/>
    </clipPath>
  </defs>
  <g id="그룹_1102" data-name="그룹 1102" clip-path="url(#clip-path)">
    <path id="패스_2516" data-name="패스 2516" d="M27.651,28.05a1.981,1.981,0,0,1-.511,1.1L25.2,31.09c-6.613,5.536-15.01-2.711-15.093-2.794L5.717,23.9c-.083-.084-8.332-8.478-2.822-15.067L4.868,6.86a1.982,1.982,0,0,1,1.095-.511A1.914,1.914,0,0,1,6.2,6.334a1,1,0,0,1,.7.225L11,11.293a1.261,1.261,0,0,1,0,1.783l-1.5,1.5a4.183,4.183,0,0,0-.794,1.148,5.387,5.387,0,0,0,1.4,5.666l2.522,2.523a5.37,5.37,0,0,0,5.678,1.378,4.2,4.2,0,0,0,1.132-.8l1.484-1.484a1.274,1.274,0,0,1,1.808.025L27.426,27.1a1.157,1.157,0,0,1,.225.95" transform="translate(3 -2.333)" fill="#afdae9"/>
    <path id="패스_2517" data-name="패스 2517" d="M27.651,28.05a1.981,1.981,0,0,1-.511,1.1L25.2,31.09c-6.613,5.536-15.01-2.711-15.093-2.794L5.717,23.9c-.083-.084-8.332-8.478-2.822-15.067L4.868,6.86a1.982,1.982,0,0,1,1.095-.511A1.914,1.914,0,0,1,6.2,6.334a1,1,0,0,1,.7.225L11,11.293a1.261,1.261,0,0,1,0,1.783l-1.5,1.5a4.183,4.183,0,0,0-.794,1.148,5.387,5.387,0,0,0,1.4,5.666l2.522,2.523a5.37,5.37,0,0,0,5.678,1.378,4.2,4.2,0,0,0,1.132-.8l1.484-1.484a1.274,1.274,0,0,1,1.808.025L27.426,27.1A1.157,1.157,0,0,1,27.651,28.05Z" transform="translate(2.5 -2.833)" fill="#0067db" stroke="#0067db" stroke-linejoin="round" stroke-width="2"/>
  </g>
</svg>
