<svg xmlns="http://www.w3.org/2000/svg" xmlns:xlink="http://www.w3.org/1999/xlink" width="49" height="48" viewBox="0 0 49 48">
  <defs>
    <clipPath id="clip-path">
      <rect id="사각형_687" data-name="사각형 687" width="49" height="48" rx="5" transform="translate(-0.326)" fill="none" stroke="#fff" stroke-width="5"/>
    </clipPath>
  </defs>
  <g id="ico_white_blog" transform="translate(0.326)">
    <g id="마스크_그룹_12" data-name="마스크 그룹 12" transform="translate(0)" clip-path="url(#clip-path)">
      <rect id="사각형_560" data-name="사각형 560" width="49" height="48" rx="5" transform="translate(-0.326)" fill="none"/>
      <g id="그룹_1934" data-name="그룹 1934" transform="translate(10.256 11.724)">
        <path id="패스_2523" data-name="패스 2523" d="M113.235,244H93.441a4.579,4.579,0,0,0-4.57,4.589v10.883a4.576,4.576,0,0,0,4.57,4.586h6.822l2.328,3.787a.691.691,0,0,0,.073.11.779.779,0,0,0,1.351,0,.514.514,0,0,0,.079-.116l2.325-3.787h6.816a4.58,4.58,0,0,0,4.573-4.586v-10.88A4.583,4.583,0,0,0,113.235,244" transform="translate(-88.871 -244)" fill="none" stroke="#fff" stroke-width="2"/>
        <path id="패스_2524" data-name="패스 2524" d="M99.133,259.111a2.356,2.356,0,0,0-1.509.7V257H95.855v7.38h1.789V263.8a1.7,1.7,0,0,0,1.489.765,2.614,2.614,0,0,0,2.491-2.76s-.092-2.7-2.491-2.7m-.391,3.894a1.135,1.135,0,1,1,.805-.332,1.137,1.137,0,0,1-.805.332" transform="translate(-92.706 -251.139)" fill="#fff"/>
        <path id="패스_2525" data-name="패스 2525" d="M109.923,256.627v1.711s.806-.037.806,1.465v4.368h1.708V259.4s.073-2.784-2.516-2.784" transform="translate(-100.431 -250.936)" fill="#fff"/>
        <path id="패스_2526" data-name="패스 2526" d="M121.194,261.742s-2.93,0-2.93,2.732a2.647,2.647,0,0,0,2.93,2.7s2.995,0,2.995-2.7a2.689,2.689,0,0,0-2.995-2.732m0,3.868a1.135,1.135,0,1,1,.805-.332,1.137,1.137,0,0,1-.805.332" transform="translate(-105.01 -253.745)" fill="#fff"/>
        <path id="패스_2527" data-name="패스 2527" d="M137.381,261.908v.5a1.937,1.937,0,0,0-1.487-.675,2.439,2.439,0,0,0-2.505,2.712s-.028,2.63,2.437,2.63a2.039,2.039,0,0,0,1.557-.675v.413s.126,1.3-1.128,1.3h-.428v1.569h.69a2.571,2.571,0,0,0,2.589-2.766v-5Zm-1.058,3.7a1.137,1.137,0,1,1,1.137-1.137,1.137,1.137,0,0,1-1.137,1.137" transform="translate(-113.315 -253.74)" fill="#fff"/>
      </g>
      <rect id="사각형_687-2" data-name="사각형 687" width="49" height="48" rx="5" transform="translate(-0.326)" fill="none" stroke="#fff" stroke-width="5"/>
    </g>
  </g>
</svg>
