<svg id="ico_double_right_arr" xmlns="http://www.w3.org/2000/svg" width="10.186" height="8.563" viewBox="0 0 10.186 8.563">
  <path id="패스_7946" data-name="패스 7946" d="M267.857,307.364a.548.548,0,0,0-.178-.4l-4.091-3.734a.547.547,0,0,0-.738.809l3.648,3.33-3.648,3.33a.547.547,0,0,0,.738.809l4.091-3.734A.548.548,0,0,0,267.857,307.364Z" transform="translate(-262.672 -303.082)"/>
  <path id="패스_7947" data-name="패스 7947" d="M267.857,307.364a.548.548,0,0,0-.178-.4l-4.091-3.734a.547.547,0,0,0-.738.809l3.648,3.33-3.648,3.33a.547.547,0,0,0,.738.809l4.091-3.734A.548.548,0,0,0,267.857,307.364Z" transform="translate(-257.672 -303.082)"/>
</svg>
