<svg xmlns="http://www.w3.org/2000/svg" width="150" height="150" viewBox="0 0 150 150">
  <g id="icon_cr_kakoa" transform="translate(-321.667 -750)">
    <circle id="타원_11" data-name="타원 11" cx="75" cy="75" r="75" transform="translate(321.667 750)" fill="#fedc00"/>
    <path id="패스_14" data-name="패스 14" d="M396.666,778.734c-29.589,0-53.578,18.61-53.578,41.564,0,14.637,9.762,27.5,24.5,34.9A43.314,43.314,0,0,1,356.858,873s-1.169.9-.5,1.893c.5.741,2.054.363,2.054.363s17.689-4.644,28.7-14.066a68.891,68.891,0,0,0,9.553.671c29.593,0,53.579-18.609,53.579-41.563S426.259,778.734,396.666,778.734Z" fill="#3b3036"/>
    <path id="패스_15" data-name="패스 15" d="M374.749,813.366h-4.684V832.84a2.808,2.808,0,0,1-.92,2.3,2.993,2.993,0,0,1-3.97,0,2.842,2.842,0,0,1-.9-2.3V813.366h-4.644a2.939,2.939,0,0,1-2.323-.876,2.9,2.9,0,0,1-.773-1.974,2.933,2.933,0,0,1,.773-1.957,2.9,2.9,0,0,1,2.323-.9h15.114a2.667,2.667,0,0,1,2.2.9,3.011,3.011,0,0,1,.735,1.957,2.978,2.978,0,0,1-.735,1.974A2.7,2.7,0,0,1,374.749,813.366Z" fill="#fedc00"/>
    <g id="그룹_20" data-name="그룹 20">
      <path id="패스_16" data-name="패스 16" d="M398.465,831.583l-9.483-22.655a2.979,2.979,0,0,0-1-1.163,2.8,2.8,0,0,0-1.609-.428h-1.508a2.753,2.753,0,0,0-1.629.486,2.808,2.808,0,0,0-.979,1.143l-9.5,22.646a3.053,3.053,0,0,0-.1,2.628,2.829,2.829,0,0,0,1.57,1.407,3.218,3.218,0,0,0,2.136,0,2.684,2.684,0,0,0,1.652-1.67l1.849-4.568h11.376l1.971,4.573a2.562,2.562,0,0,0,1.609,1.55,3.068,3.068,0,0,0,2.1,0,2.935,2.935,0,0,0,1.588-1.362A2.971,2.971,0,0,0,398.465,831.583Zm-16.429-7.623,3.559-9.3,3.4,9.308Z" fill="#fedc00"/>
    </g>
    <path id="패스_17" data-name="패스 17" d="M410.908,835.831h-8.754a2.847,2.847,0,0,1-2.08-.715,2.908,2.908,0,0,1-.733-2.18V810.653a3.019,3.019,0,0,1,.873-2.343,2.835,2.835,0,0,1,3.935,0,2.967,2.967,0,0,1,.9,2.343v19.433h5.863a3.531,3.531,0,0,1,2.645.917,2.782,2.782,0,0,1,.9,1.975,2.72,2.72,0,0,1-.9,1.957A3.585,3.585,0,0,1,410.908,835.831Z" fill="#fedc00"/>
    <path id="패스_18" data-name="패스 18" d="M435.6,830.487l-8.007-10.593,6.686-5.942a3.462,3.462,0,0,0,1.3-2.3,2.655,2.655,0,0,0-2.466-2.912,3.25,3.25,0,0,0-2.423.9l-8.435,6.885V810.31a2.866,2.866,0,0,0-2.85-3.1,2.858,2.858,0,0,0-1.937.776,2.933,2.933,0,0,0-.876,2.32v22.571a3.115,3.115,0,0,0,.876,2.423,2.824,2.824,0,0,0,1.937.794,2.886,2.886,0,0,0,1.954-.794,3.074,3.074,0,0,0,.9-2.423v-8.244l.885-.785,7.764,9.858A3.167,3.167,0,0,0,433,835.3a2.746,2.746,0,0,0,2.1-.393,2.786,2.786,0,0,0,1.152-1.8A3.474,3.474,0,0,0,435.6,830.487Z" fill="#fedc00"/>
  </g>
</svg>
