<svg xmlns="http://www.w3.org/2000/svg" width="150" height="150" viewBox="0 0 150 150">
  <g id="icon_cr_tw" transform="translate(-115 -520.41)">
    <circle id="타원_6" data-name="타원 6" cx="75" cy="75" r="75" transform="translate(115 520.41)" fill="#1ab2e8"/>
    <path id="패스_7" data-name="패스 7" d="M237.994,567.979c-4.4.753-7.478,1.144-9.089,1.328a25.482,25.482,0,0,0,7.223-9.208,38.05,38.05,0,0,1-12.261,3.372l.009.014A18.623,18.623,0,0,0,192.719,581.4c-23.391-.316-36.794-19.924-36.794-19.924s-8.063,14.531,5.719,25.5l-8.532-1.688a21.112,21.112,0,0,0,14.719,18.281l-8.625.844S161.55,615,176.362,616.785c0,0-8.156,8.719-25.781,8.156,0,0,35.508,25.483,65.719-8.812,13.875-15.75,13.11-38.713,13.11-38.713l-.019,0c.007-.223.034-.441.034-.665,0-.393-.035-.777-.059-1.166C236.185,571.331,237.994,567.979,237.994,567.979Z" fill="#fff"/>
  </g>
</svg>
